<svg xmlns="http://www.w3.org/2000/svg" viewBox="0 0 512 512" width="512" height="512">
  <path d="M 56.000 346.721 Q 143.700 273.609 174.688 273.609 Q 186.859 273.609 190.312 284.399 Q 196.785 303.562 211.891 303.562 Q 226.997 303.562 250.217 284.485 Q 273.436 265.322 288.542 265.322 Q 303.130 265.322 309.604 284.399 Q 316.596 303.562 331.960 303.562 Q 347.325 303.562 370.545 284.399 Q 382.111 274.731 393.160 274.731 Q 426.652 274.731 456.000 359.927 L 430.709 373.738 Q 413.704 323.846 388.067 323.846 Q 374.343 323.846 358.115 338.089 Q 334.895 358.633 319.789 358.633 Q 304.684 358.633 297.951 338.348 Q 290.441 317.372 274.472 317.372 Q 259.625 317.372 237.269 335.413 Q 213.790 354.576 198.943 354.576 Q 183.838 354.576 177.105 335.154 Q 170.631 316.250 156.043 316.250 Q 141.283 316.250 106.410 344.994 Q 71.624 373.738 70.329 373.738 L 56.000 347.325 L 56.000 346.721 Z M 56.000 219.660 Q 143.441 147.152 174.688 147.152 Q 186.600 147.152 190.312 157.683 Q 196.785 176.501 211.891 176.501 Q 226.738 176.501 249.958 157.683 Q 273.436 138.262 288.283 138.262 Q 303.130 138.262 309.259 157.683 Q 316.596 176.501 331.701 176.501 Q 347.066 176.501 370.286 157.683 Q 381.852 148.188 392.901 148.188 Q 426.652 148.188 456.000 233.212 L 430.709 246.678 Q 413.704 196.785 388.067 196.785 Q 374.343 196.785 358.115 211.373 Q 334.636 232.090 319.789 232.090 Q 304.684 232.090 297.692 211.632 Q 290.441 190.571 274.472 190.571 Q 259.625 190.571 237.010 208.870 Q 213.790 228.033 198.685 228.033 Q 183.838 228.033 177.105 208.611 Q 170.631 189.189 155.784 189.189 Q 140.937 189.189 106.237 217.934 Q 71.624 246.678 70.329 246.678 L 56.000 220.523 L 56.000 219.660 Z" fill="#111111"/>
</svg>
