<svg xmlns="http://www.w3.org/2000/svg" viewBox="0 0 512 512" width="512" height="512">
  <path d="M 240.592 437.681 Q 240.592 292.134 205.893 198.364 Q 171.195 104.593 130.209 104.593 Q 98.926 104.593 94.812 128.501 Q 90.698 152.410 90.698 160.638 Q 90.698 191.688 111.036 222.738 L 78.511 222.738 Q 56.000 190.756 56.000 151.711 Q 56.000 119.652 75.717 96.986 Q 95.511 74.319 130.908 74.319 Q 221.185 74.319 252.934 261.783 Q 254.874 273.660 256.116 283.363 Q 257.048 273.660 258.989 261.783 Q 291.048 74.319 381.015 74.319 Q 416.722 74.319 436.361 96.986 Q 456.000 119.652 456.000 151.711 Q 456.000 190.756 433.411 222.738 L 400.886 222.738 Q 421.535 191.688 421.535 160.405 Q 421.535 152.177 417.421 128.424 Q 413.306 104.593 381.791 104.593 Q 341.038 104.593 306.340 198.364 Q 271.641 292.134 271.641 437.681 L 240.592 437.681 Z" fill="#111111"/>
</svg>
