<svg xmlns="http://www.w3.org/2000/svg" viewBox="0 0 512 512" width="512" height="512">
  <path d="M 399.735 284.365 Q 380.546 265.176 352.879 265.176 Q 325.306 265.176 306.023 284.365 Q 286.834 303.555 286.834 331.221 Q 286.834 358.888 306.023 378.264 Q 325.306 397.639 352.879 397.639 Q 380.266 397.639 399.642 378.264 Q 419.018 358.888 419.018 331.221 Q 419.018 303.555 399.735 284.365 Z M 297.360 449.153 Q 206.536 448.594 153.531 442.819 Q 100.527 436.950 56.000 424.374 L 56.000 388.324 Q 129.684 412.730 182.595 415.991 Q 235.599 419.158 252.740 419.158 Q 290.653 419.158 288.324 411.612 Q 250.131 380.127 250.131 331.501 Q 250.131 288.743 279.940 258.655 Q 309.843 228.473 352.600 228.473 Q 396.009 228.473 426.005 258.655 Q 456.000 288.743 456.000 331.594 Q 456.000 374.351 425.725 404.347 Q 404.486 426.703 368.622 437.789 Q 332.851 448.874 297.360 449.153 Z M 159.027 246.824 Q 186.415 246.824 205.790 227.635 Q 225.166 208.445 225.166 180.779 Q 225.166 153.112 205.790 133.923 Q 186.415 114.640 159.027 114.640 Q 131.640 114.640 112.171 133.923 Q 92.702 153.112 92.702 180.779 Q 92.702 208.445 111.985 227.635 Q 131.361 246.824 159.027 246.824 Z M 214.361 62.847 Q 305.464 63.406 358.469 69.367 Q 411.473 75.329 456.000 87.905 L 456.000 123.676 Q 382.316 99.270 329.591 96.196 Q 276.959 93.122 260.099 93.122 Q 221.347 93.122 223.676 100.667 Q 261.776 132.153 261.776 180.499 Q 261.776 223.536 231.966 253.718 Q 202.157 283.806 159.307 283.806 Q 115.991 283.806 85.995 253.718 Q 56.000 223.536 56.000 180.499 Q 56.000 137.928 86.275 107.933 Q 107.514 85.576 143.191 74.398 Q 178.869 63.126 214.361 62.847 Z" fill="#111111"/>
</svg>
