<svg xmlns="http://www.w3.org/2000/svg" viewBox="0 0 512 512" width="512" height="512">
  <path d="M 238.332 56.000 Q 266.995 56.000 277.775 171.765 Q 288.642 287.529 295.316 286.503 Q 324.492 227.380 376.599 227.380 Q 408.941 227.380 429.390 252.791 Q 449.840 278.203 449.840 305.754 Q 449.840 344.513 430.674 367.358 Q 411.594 390.203 373.690 390.203 Q 332.193 390.203 299.594 354.695 Q 287.872 397.476 271.016 426.225 Q 254.160 454.888 217.283 456.000 L 172.364 456.000 L 172.364 424.428 L 213.519 424.171 Q 246.118 423.144 274.182 322.610 Q 260.834 318.332 252.278 212.834 Q 243.722 107.337 228.235 107.337 Q 218.567 107.337 197.947 169.797 Q 177.412 232.171 177.412 284.364 Q 177.412 288.385 177.412 292.064 L 135.144 292.663 Q 135.144 224.984 116.321 158.674 Q 97.497 92.364 62.160 90.738 L 62.160 64.813 Q 101.433 64.813 122.995 94.503 Q 144.556 124.193 155.251 197.690 Q 167.487 143.957 179.551 120.428 Q 190.503 96.128 206.759 76.107 Q 223.102 56.000 238.332 56.000 Z M 314.824 319.615 Q 339.722 358.374 374.460 358.374 Q 417.497 358.374 419.893 305.754 Q 418.011 263.743 375.572 258.695 Q 334.930 258.695 314.824 319.615 Z" fill="#111111"/>
</svg>
