<svg xmlns="http://www.w3.org/2000/svg" viewBox="0 0 512 512" width="512" height="512">
  <title>Chiron</title>
  <path d="M608.5 280.0Q550 221 550.0 138.0Q550 55 608.5 -3.5Q667 -62 750.0 -62.0Q833 -62 891.5 -3.5Q950 55 950.0 138.0Q950 221 891.5 280.0Q833 339 750.0 339.0Q667 339 608.5 280.0ZM502 388Q574 459 667 481V1455H839V1149L1132 1322L1218 1174L859 965L1218 755L1132 607L839 781V479Q928 457 998 388Q1102 285 1102.0 139.5Q1102 -6 998.5 -109.0Q895 -212 750.0 -212.0Q605 -212 501.5 -109.0Q398 -6 398.0 139.5Q398 285 502 388Z" fill="#111111" transform="translate(62.119 405.130) scale(0.239952 -0.239952)"/>
</svg>
