<svg xmlns="http://www.w3.org/2000/svg" viewBox="0 0 512 512" width="512" height="512">
  <path d="M 187.166 350.075 Q 207.187 342.374 213.861 327.316 Q 220.535 312.171 220.535 301.733 Q 220.535 292.321 216.770 282.995 Q 209.070 262.973 193.925 256.299 Q 178.866 249.540 168.428 249.540 Q 158.759 249.540 149.433 253.305 Q 129.412 261.348 122.824 276.235 Q 116.235 291.037 116.235 301.476 Q 116.235 310.802 120.000 320.471 Q 128.043 340.749 142.845 347.337 Q 157.733 353.840 168.171 353.840 Q 177.497 353.840 187.166 350.075 Z M 190.332 152.770 Q 190.332 109.733 220.107 82.866 Q 249.968 56.000 298.053 56.000 Q 344.086 56.000 373.176 85.604 Q 402.353 115.123 402.353 162.182 Q 402.353 212.150 363.594 279.316 Q 324.834 346.396 324.834 394.481 Q 325.861 427.679 361.711 428.449 Q 380.706 428.449 407.487 404.920 L 424.856 424.171 Q 390.888 456.000 361.198 456.000 Q 334.759 456.000 315.508 439.829 Q 296.257 423.658 296.257 393.968 Q 296.257 340.749 334.588 276.492 Q 372.920 212.150 372.920 160.299 Q 372.920 124.449 351.016 102.374 Q 329.112 80.299 293.775 80.299 Q 259.893 80.299 239.786 101.091 Q 219.765 121.797 219.765 156.278 Q 219.765 172.278 225.925 191.701 Q 232.086 211.037 238.759 227.636 Q 248.599 253.818 249.797 270.930 Q 250.995 288.043 250.995 292.663 Q 250.995 315.850 242.439 334.075 Q 228.834 364.791 197.861 376.856 Q 182.888 382.759 167.914 382.759 Q 151.829 382.759 128.642 372.749 Q 105.540 362.652 93.048 330.567 Q 87.144 316.193 87.144 301.219 Q 87.144 285.134 94.332 269.134 Q 108.021 238.588 139.251 226.353 Q 153.968 220.706 168.684 220.706 Q 188.963 220.706 208.813 231.658 Q 210.952 231.658 210.952 228.150 Q 210.952 221.219 200.599 196.663 Q 190.332 172.021 190.332 152.770 Z" fill="#111111"/>
</svg>
