<svg xmlns="http://www.w3.org/2000/svg" viewBox="0 0 512 512" width="512" height="512">
  <path d="M 56.000 379.967 L 456.000 379.967 L 456.000 420.661 L 56.000 420.661 L 56.000 379.967 Z M 205.154 313.828 L 56.000 313.828 L 56.000 273.134 L 150.838 273.134 Q 132.847 245.291 132.847 210.166 Q 132.847 160.648 167.202 126.036 Q 201.641 91.339 251.245 91.339 Q 301.020 91.339 335.632 126.036 Q 370.329 160.648 370.329 210.166 Q 370.329 245.291 352.166 273.134 L 456.000 273.134 L 456.000 313.828 L 297.251 313.828 L 297.251 273.134 L 296.994 273.134 Q 301.791 269.622 306.332 265.081 Q 329.378 242.293 329.378 209.909 Q 329.378 177.268 306.589 154.565 Q 283.886 131.776 251.160 131.776 Q 218.519 131.776 195.730 154.565 Q 173.027 177.268 173.027 209.909 Q 173.027 242.293 195.816 265.081 Q 200.099 269.622 205.154 273.134 L 205.154 313.828 Z" fill="#111111"/>
</svg>
