<svg xmlns="http://www.w3.org/2000/svg" viewBox="0 0 512 512" width="512" height="512">
  <title>Mars</title>
  <path d="M737 918Q573 918 457.5 804.0Q342 690 342.0 526.0Q342 362 457.5 254.0Q573 146 737 146Q898 146 1015.0 254.0Q1132 362 1132.0 526.0Q1132 690 1015.0 804.0Q898 918 737 918ZM1149 135Q981 -29 737 -29Q502 -29 332.0 129.5Q162 288 162.0 526.0Q162 764 334.5 934.5Q507 1105 737 1096Q965 1088 1077 985L1438 1333H1067L1207 1475H1701V983L1558 840V1213L1200 865Q1312 719 1312 526Q1312 294 1149 135Z" fill="#111111" transform="translate(13.895 443.914) scale(0.259909 -0.259909)"/>
</svg>
