<svg xmlns="http://www.w3.org/2000/svg" viewBox="0 0 512 512" width="512" height="512">
  <title>Mercury</title>
  <path d="M873 1110Q913 1084 949 1048Q1082 917 1082 728Q1082 540 950 416Q842 316 699 302V93L915 95V-5L695 -6L696 -208H567L566 -5H364V93H566L564 302Q417 315 308 416Q175 540 175 728Q175 917 308 1048Q344 1084 384 1110Q344 1135 308 1172Q175 1303 175 1491V1499H317V1489Q317 1359 408 1269Q493 1186 610 1179H648Q764 1186 849 1269Q940 1359 940 1489V1499H1082V1491Q1082 1303 949 1172Q913 1135 873 1110ZM648 1040H610Q493 1034 408 950Q317 861 317.0 731.0Q317 601 408.5 516.0Q500 431 630 431Q757 431 848.5 516.0Q940 601 940.0 731.0Q940 861 849 950Q764 1034 648 1040Z" fill="#111111" transform="translate(108.724 407.260) scale(0.234329 -0.234329)"/>
</svg>
