<svg xmlns="http://www.w3.org/2000/svg" viewBox="0 0 512 512" width="512" height="512">
  <title>Moon</title>
  <path d="M943 0Q548 0 275 377Q170 550 170 748Q170 1140 566 1397Q745 1496 922 1496H971Q1017 1496 1097 1481V1474Q821 1395 695 1218Q541 1015 541 748Q541 348 875 123Q1011 44 1104 28V24Q1104 14 955 0ZM915 62V65Q458 262 458 755Q458 1156 794 1388L838 1412V1415H832Q746 1415 587 1332Q355 1182 272 937Q244 845 244 751V742Q244 424 590 164Q754 62 912 62Z" fill="#111111" transform="translate(85.679 456.000) scale(0.267380 -0.267380)"/>
</svg>
