<svg xmlns="http://www.w3.org/2000/svg" viewBox="0 0 512 512" width="512" height="512">
  <title>Neptune</title>
  <path d="M994 187V0H843V187H667V338H843V477Q678 499 556 621Q406 771 405 986V1070L261 928L260 1068L405 1221H557L701 1068V928L557 1070V986H559V984H557Q558 833 662 729Q740 650 843 630V1344L698 1203L697 1342L843 1496H994L1139 1342V1203L994 1344V631Q1095 651 1172 729Q1278 835 1278 985V986H1279V1075L1135 933L1134 1073L1279 1226H1431L1575 1073V933L1431 1075V986H1432V982Q1431 771 1281 621Q1159 500 994 477V338H1169V187Z" fill="#111111" transform="translate(10.679 456.000) scale(0.267380 -0.267380)"/>
</svg>
