<svg xmlns="http://www.w3.org/2000/svg" viewBox="0 0 512 512" width="512" height="512">
  <path d="M 288.257 278.203 L 223.829 278.973 Q 215.273 369.326 140.920 455.230 L 96.770 456.000 Q 178.909 362.139 186.096 278.973 L 106.952 278.973 L 106.952 233.027 L 186.096 233.027 Q 178.652 150.118 96.513 56.000 L 140.920 56.770 Q 215.273 142.332 223.829 233.027 L 288.513 233.027 Q 296.813 142.332 371.422 56.770 L 415.487 56.000 Q 333.433 150.118 326.246 233.027 L 405.048 233.027 L 404.791 278.973 L 325.647 278.973 Q 333.433 362.139 415.487 456.000 L 371.166 455.230 Q 296.556 369.326 288.257 278.973 L 288.257 278.203 Z" fill="#111111"/>
</svg>
