<svg xmlns="http://www.w3.org/2000/svg" viewBox="0 0 512 512" width="512" height="512">
  <path d="M 341.101 345.207 Q 341.101 371.351 353.231 386.119 Q 365.361 400.811 386.307 401.037 L 407.253 401.037 L 407.253 373.235 L 408.232 373.235 L 456.000 413.996 L 408.232 455.209 L 407.253 454.229 L 407.253 426.428 L 386.307 426.428 Q 338.539 426.428 322.491 398.174 Q 312.169 380.769 310.285 352.967 L 305.312 166.944 Q 305.312 162.724 305.312 158.731 Q 305.312 92.579 294.463 92.353 Q 280.826 92.579 265.154 118.121 Q 249.483 143.662 234.715 190.752 L 234.715 409.023 L 199.153 409.023 L 199.153 191.958 Q 199.153 116.388 195.461 103.881 Q 191.845 91.374 183.557 91.374 L 183.331 91.374 L 183.105 91.374 Q 173.461 91.374 152.365 118.046 Q 131.344 144.642 126.823 195.198 L 126.823 409.023 L 91.788 409.023 L 91.788 152.628 Q 91.788 107.874 56.000 62.894 L 89.377 62.894 Q 117.179 81.504 125.693 122.943 Q 131.118 101.018 152.591 78.942 Q 174.139 56.791 190.413 56.791 Q 205.256 56.791 219.270 80.148 Q 233.284 103.429 233.284 133.566 Q 242.702 105.539 265.983 81.202 Q 289.340 56.791 306.970 56.791 Q 321.587 56.791 331.231 76.456 Q 340.875 96.121 340.875 147.656 L 340.875 195.198 L 341.101 344.981 L 341.101 345.207 Z" fill="#111111"/>
</svg>
