<svg xmlns="http://www.w3.org/2000/svg" viewBox="0 0 512 512" width="512" height="512">
  <title>SouthNode</title>
  <path d="M1560 1169Q1560 1242 1508.0 1294.0Q1456 1346 1383 1346Q1309 1346 1257.5 1294.0Q1206 1242 1206 1169Q1206 1095 1257.5 1043.5Q1309 992 1383.0 992.0Q1457 992 1508.5 1043.5Q1560 1095 1560 1169ZM613 1169Q613 1243 561.5 1294.5Q510 1346 436 1346Q363 1346 311.0 1294.5Q259 1243 259 1169Q259 1096 311.0 1044.5Q363 993 436 993Q510 993 561.5 1044.5Q613 1096 613 1169ZM1672 596Q1672 349 1448.0 174.5Q1224 0 900 0Q579 0 355.0 174.5Q131 349 131 596Q131 776 253 917Q234 932 216 950Q125 1041 125.0 1170.0Q125 1299 216.5 1390.0Q308 1481 436 1481Q566 1481 657.0 1390.0Q748 1299 748.0 1170.0Q748 1041 658 950Q571 862 446 859Q325 745 325 594Q325 414 492.5 288.5Q660 163 900.0 163.0Q1140 163 1307.5 288.5Q1475 414 1475 594Q1475 746 1354 859Q1243 868 1162 949Q1072 1041 1072.0 1170.0Q1072 1299 1163.0 1390.0Q1254 1481 1383 1481Q1513 1481 1604.0 1390.0Q1695 1299 1695.0 1170.0Q1695 1041 1604 949Q1582 927 1557 910Q1672 771 1672 596Z" fill="#111111" transform="translate(24.153 444.662) scale(0.254777 -0.254777)"/>
</svg>
