<svg xmlns="http://www.w3.org/2000/svg" viewBox="0 0 512 512" width="512" height="512">
  <title>Sun</title>
  <path d="M1666 748Q1666 437 1447.0 218.5Q1228 0 917 0Q608 0 389.0 218.5Q170 437 170 748Q170 942 270.5 1122.5Q371 1303 551.0 1399.5Q731 1496 917 1496Q1106 1496 1286.0 1399.5Q1466 1303 1566.0 1123.5Q1666 944 1666 748ZM243 748Q243 468 440.0 271.5Q637 75 917.0 75.0Q1197 75 1394.0 271.5Q1591 468 1591 748Q1591 925 1501.0 1086.0Q1411 1247 1249.0 1334.0Q1087 1421 917.0 1421.0Q747 1421 585.0 1334.0Q423 1247 333.0 1086.0Q243 925 243 748ZM1105 748Q1105 670 1050.5 615.5Q996 561 918 561Q841 561 786.0 615.5Q731 670 731 748Q731 797 756.0 842.0Q781 887 826.0 911.0Q871 935 918.0 935.0Q965 935 1010.0 911.0Q1055 887 1080.0 842.0Q1105 797 1105 748Z" fill="#111111" transform="translate(10.545 456.000) scale(0.267380 -0.267380)"/>
</svg>
