<svg xmlns="http://www.w3.org/2000/svg" viewBox="0 0 512 512" width="512" height="512">
  <path d="M 255.743 226.011 Q 216.385 226.011 188.834 253.733 Q 161.369 281.369 161.369 320.727 Q 161.369 360.000 188.834 387.551 Q 216.385 415.102 255.658 415.102 Q 295.016 415.102 322.652 387.551 Q 350.374 360.000 350.374 320.727 Q 350.374 281.369 322.909 253.733 Q 295.529 226.011 255.743 226.011 Z M 255.743 185.968 Q 290.738 184.599 311.102 168.257 Q 334.032 150.631 346.952 126.588 Q 359.957 102.545 381.519 79.273 Q 403.080 56.000 452.535 56.000 L 452.535 84.834 Q 419.594 84.834 397.262 126.588 Q 374.930 168.257 339.936 197.176 Q 334.289 202.225 328.214 206.246 Q 340.449 214.289 352.000 225.241 Q 391.016 265.112 391.016 321.241 Q 391.016 377.112 351.572 416.556 Q 312.128 456.000 255.743 456.000 Q 200.128 456.000 160.513 416.556 Q 120.984 377.112 120.984 321.241 Q 120.984 265.112 160.513 225.241 Q 171.465 214.032 184.299 205.989 Q 177.882 202.225 172.321 197.176 Q 137.840 168.257 114.909 126.588 Q 92.064 84.834 59.465 84.834 L 59.465 56.000 Q 108.920 56.000 133.733 79.273 Q 158.631 102.545 168.214 126.588 Q 177.882 150.631 200.642 168.257 Q 221.262 184.599 255.743 185.968 Z" fill="#111111"/>
</svg>
