<svg xmlns="http://www.w3.org/2000/svg" viewBox="0 0 512 512" width="512" height="512">
  <title>Uranus</title>
  <path d="M782 262Q782 205 821.5 166.0Q861 127 917 127Q972 127 1011.5 166.0Q1051 205 1051 262Q1051 317 1012.0 356.5Q973 396 917.0 396.0Q861 396 821.5 356.5Q782 317 782 262ZM993 511Q1054 493 1102 445Q1178 369 1178.0 261.0Q1178 153 1102.0 76.5Q1026 0 917 0Q810 0 733.5 76.5Q657 153 657.0 261.0Q657 369 733 445Q780 494 842 511V907H554V470H248V621H403V1344H248V1496H554V1058H842V1496H993V1058H1281V1496H1586V1344H1433V621H1586V470H1281V907H993Z" fill="#111111" transform="translate(10.813 456.000) scale(0.267380 -0.267380)"/>
</svg>
