<svg xmlns="http://www.w3.org/2000/svg" viewBox="0 0 512 512" width="512" height="512">
  <title>Venus</title>
  <path d="M750 1319Q586 1319 470.5 1205.0Q355 1091 355 927Q355 764 470.5 656.0Q586 548 750 548Q911 548 1028.0 656.0Q1145 764 1145 927Q1145 1091 1028.0 1205.0Q911 1319 750 1319ZM344 532Q175 689 175 927Q175 1166 343.0 1332.0Q511 1498 750 1498Q986 1498 1155.5 1332.0Q1325 1166 1325.0 927.0Q1325 688 1156 532Q1020 406 840 388V124H1112V0H840V-257H660V0H388V124H660V389Q479 406 344 532Z" fill="#111111" transform="translate(85.060 397.425) scale(0.227920 -0.227920)"/>
</svg>
