<svg xmlns="http://www.w3.org/2000/svg" viewBox="0 0 512 512" width="512" height="512">
  <path d="M 205.039 56.000 Q 218.560 56.000 231.326 77.277 Q 244.092 98.485 244.092 125.938 Q 252.671 100.406 273.879 78.237 Q 295.156 56.000 311.216 56.000 Q 324.531 56.000 333.316 73.914 Q 342.102 91.827 342.102 138.773 L 342.102 182.081 Q 352.397 155.314 366.398 142.548 Q 380.468 129.782 395.087 129.782 Q 407.922 129.782 418.629 154.696 Q 429.404 179.542 429.404 238.086 Q 429.404 325.595 347.661 394.435 Q 347.867 414.614 379.233 456.000 L 343.200 456.000 Q 333.316 447.215 317.462 412.692 Q 281.635 434.380 244.092 435.822 L 244.092 410.976 Q 285.067 404.936 311.628 386.336 L 309.706 339.734 L 309.706 156.343 Q 309.706 152.500 309.706 148.862 Q 309.706 88.601 299.823 88.395 Q 287.400 88.601 273.124 111.868 Q 258.848 135.135 245.396 178.032 L 245.396 376.865 L 213.001 376.865 L 213.001 179.130 Q 213.001 110.290 209.638 98.896 Q 206.343 87.503 198.793 87.503 L 198.588 87.503 L 198.382 87.503 Q 189.596 87.503 170.379 111.800 Q 151.230 136.027 147.112 182.081 L 147.112 376.865 L 115.197 376.865 L 115.197 143.303 Q 115.197 102.534 82.596 61.559 L 113.001 61.559 Q 138.327 78.512 146.082 116.261 Q 151.024 96.288 170.585 76.178 Q 190.214 56.000 205.039 56.000 Z M 342.102 244.332 L 342.102 364.442 Q 397.421 310.770 402.568 238.292 Q 402.568 196.906 397.764 182.012 Q 392.960 167.119 386.920 167.119 L 386.096 167.119 Q 379.644 167.119 364.270 189.219 Q 348.965 211.251 342.102 244.332 Z" fill="#111111"/>
</svg>
